<svg class="prev" xmlns="http://www.w3.org/2000/svg" width="465.405" height="99.35" viewBox="0 0 465.405 99.35">

  <g id="Group_120" data-name="Group 120" transform="translate(-140 -66.149)">

    <path id="Path_24" data-name="Path 24"
      d="M57.151,117.584a23.176,23.176,0,0,0-8.29,9.644c-4.044,8.1-5.256,23.042-5.256,32.973,0,11.86,1.415,28.153,7.381,37.024a18.108,18.108,0,0,0,6.064,5.592,1.636,1.636,0,0,1,1.113,1.542c0,1.349-1.718,1.255-2.326,1.255-11.626,0-25.881-24.009-25.881-45.413,0-20.15,14.154-45.315,25.982-45.315.607,0,2.326-.1,2.326,1.253,0,.869-.708,1.156-1.113,1.446"
      transform="translate(110.043 -46.187)" fill="#fff" />
    <path id="Path_25" data-name="Path 25"
      d="M74.615,139.748c-1.921,0-3.641,1.253-4.955,3.76v25.549c1.516,2.6,3.639,3.76,5.663,3.76,4.042,0,5.963-4.339,5.963-17.259,0-12.823-3.639-15.811-6.671-15.811m4.649,35.77a18.606,18.606,0,0,1-9.6-2.6V184.87c0,6.075,4.449,8.1,7.076,8.1v1.06H44.69v-1.06a8.22,8.22,0,0,0,7.683-8.292V146.592c0-5.3-3.236-6.652-4.955-6.652v-.965l20.017-5.592c1.113-.29,2.224-.386,2.224,1.349v4.629c3.437-3.76,7.885-6.268,13.243-6.268,7.887,0,16.58,5.4,16.58,18.222,0,14.464-9.806,24.2-20.22,24.2"
      transform="translate(125.738 -28.529)" fill="#fff" />
    <path id="Path_26" data-name="Path 26"
      d="M108.561,150.723c-4.651,0-6.572-2.8-7.683-5.015-.81-1.639-1.113-2.988-1.82-2.988s-1.82.772-3.135,3.374v21.6c0,4.53,2.832,5.882,4.044,5.978v.963H73.178v-.963a6.574,6.574,0,0,0,5.054-6.171V146.384c0-5.206-3.437-6.075-4.752-6.075v-.867l20.22-6.268c1.316-.29,2.224-.386,2.224,1.349v6.847c3.135-3.76,7.481-7.81,12.638-7.81s9,3.76,9,8.387a8.838,8.838,0,0,1-9,8.775"
      transform="translate(156.087 -28.61)" fill="#fff" />
    <path id="Path_27" data-name="Path 27"
      d="M118.731,134.538c-2.629,0-6.369,3.086-6.369,12.053,0,.772.1,1.446.1,2.314h9.5c1.619,0,1.82-1.158,1.82-4.146,0-5.206-1.516-10.221-5.054-10.221m-.708,41.074c-12.739,0-21.938-7.81-21.938-20.44,0-13.018,10.717-22.177,23.96-22.177,11.828,0,19.916,8.1,19.916,16.1,0,.963-.1,1.639-1.516,1.639H112.564c1.01,9.449,4.953,15.33,13.144,15.33,7.481,0,12.433-5.882,13.546-7.617.605-.193,1.111-.1,1.111.483-.81,3.471-7.379,16.679-22.343,16.679"
      transform="translate(180.491 -28.624)" fill="#fff" />
    <path id="Path_28" data-name="Path 28"
      d="M154.88,149.683l-8.794,24.491h-9.5l-14.356-33.747c-1.82-4.05-3.742-5.785-4.752-5.785v-1.156h26.387v1.156a3.68,3.68,0,0,0-2.528,5.109l7.382,19.092,3.639-9.642a20.1,20.1,0,0,0,1.516-7.426c0-4.434-1.921-7.134-4.651-7.134v-1.156h17.694v1.156c-2.528,0-8.493,5.3-12.033,15.041"
      transform="translate(203.278 -28.149)" fill="#fff" />
    <path id="Path_29" data-name="Path 29"
      d="M153.525,138.924c-5.357,0-9.907-4.146-9.907-9.354,0-5.109,4.55-9.447,9.907-9.447a9.674,9.674,0,0,1,9.808,9.447,9.535,9.535,0,0,1-9.808,9.354M140.383,187.13v-.963A6.542,6.542,0,0,0,145.538,180V158.881c0-5.206-3.538-6.075-4.851-6.075v-.867l20.321-6.268c1.212-.29,2.123-.386,2.123,1.349v33.168c0,4.53,2.829,5.882,4.044,5.978v.963Z"
      transform="translate(227.683 -41.107)" fill="#fff" />
    <path id="Path_30" data-name="Path 30"
      d="M178.153,134.538c-2.629,0-6.369,3.086-6.369,12.053,0,.772.1,1.446.1,2.314h9.5c1.617,0,1.82-1.158,1.82-4.146,0-5.206-1.516-10.221-5.054-10.221m-.708,41.074c-12.737,0-21.938-7.81-21.938-20.44,0-13.018,10.717-22.177,23.96-22.177,11.828,0,19.916,8.1,19.916,16.1,0,.963-.1,1.639-1.516,1.639H171.986c1.01,9.449,4.955,15.33,13.142,15.33,7.483,0,12.435-5.882,13.549-7.617.605-.193,1.111-.1,1.111.483-.808,3.471-7.379,16.679-22.343,16.679"
      transform="translate(243.795 -28.624)" fill="#fff" />
    <path id="Path_31" data-name="Path 31"
      d="M243.667,149.683l-8.8,24.491h-9.4L214.753,149.1l-9,25.07h-9.5L181.8,140.427c-1.72-4.05-3.639-5.785-4.752-5.785v-1.156h26.387v1.156a3.753,3.753,0,0,0-2.528,5.109l7.481,19.092,4.854-13.307-2.326-5.109c-1.617-4.05-4.348-5.785-5.863-5.785v-1.156h28.51v1.156a3.733,3.733,0,0,0-2.629,5.109l6.673,19.092,3.437-9.642a20.059,20.059,0,0,0,1.516-7.426c0-4.434-1.921-7.134-4.649-7.134v-1.156H255.6v1.156c-2.427,0-8.493,5.3-11.929,15.041"
      transform="translate(266.739 -28.149)" fill="#fff" />
    <path id="Path_32" data-name="Path 32"
      d="M218.727,205.564c-.506,0-2.326,0-2.326-1.351a1.7,1.7,0,0,1,1.212-1.542,20.233,20.233,0,0,0,6.167-5.5c6.066-8.966,7.582-25.165,7.582-37.217,0-9.738-1.111-24.779-5.357-32.878a24.2,24.2,0,0,0-8.493-9.642,1.591,1.591,0,0,1-1.212-1.446c0-1.349,1.82-1.253,2.326-1.253,11.221,0,26.789,25.261,26.789,45.315,0,21.4-14.154,45.51-26.688,45.51"
      transform="translate(308.559 -46.33)" fill="#fff" />
    <path id="Path_45" data-name="Path 45"
      d="M20.811-13.608v-.252H16.443l.021.252c1.05,0,1.827,1.785,1.323,3.465L15.75-3.486l-2.289-7.728a1.829,1.829,0,0,1,1.281-2.394v-.252H7.329v.252c.441,0,1.05.5,1.386,1.533l1.449,4.6L8.505-3.234l-2.541-7.98c-.42-1.344.147-2.394.819-2.394v-.252H-.693v.252a2.307,2.307,0,0,1,1.68,1.533L5.1,0H7.791l2.625-6.678L12.537,0h2.646l3.234-10.542A4.658,4.658,0,0,1,20.811-13.608ZM33.936-6.237c.042-.315-.147-.252-.294.063a16.408,16.408,0,0,1-2.058,3.381c-.966,1.2-2.163,2.268-3.423,2.268-.735,0-1.092-.672-1.092-1.365V-7.056h.42c1.911,0,2.814,2.31,2.814,3.066H30.6v-6.447h-.21c0,.756-.987,2.9-2.9,2.9h-.42v-4.347c0-1.05.588-1.512,1.3-1.512.966,0,2.058.882,2.94,1.974a12.266,12.266,0,0,1,1.932,3.192c.147.441.378.252.357,0l-.273-5.4c-.021-.21-.336-.231-.336-.231H20.727v.21a2.406,2.406,0,0,1,1.995,2.541v8.274a2.5,2.5,0,0,1-2.163,2.6V0H32.886s.378-.063.4-.294Zm14.931,2.31c0-2.94-3.15-3.423-3.99-3.423v-.105c.756,0,3.129-.945,3.129-3.192,0-2.31-2.121-3.234-4.2-3.234H35.049v.231a2.259,2.259,0,0,1,1.785,2.226v8.505A2.519,2.519,0,0,1,34.944-.21V0h9.345C46.746,0,48.867-1.386,48.867-3.927ZM43.743-10.29c0,2.268-.8,2.9-1.512,2.9h-.987c-.105,0-.189-.063-.189-.252v-4.578c0-.651.168-1.344,1.071-1.344C43.176-13.566,43.743-12.537,43.743-10.29Zm.735,6.531c0,2.394-1.092,3.339-2.058,3.339a1.257,1.257,0,0,1-1.365-1.323V-6.825a.292.292,0,0,1,.273-.252h.9C43.218-7.077,44.478-6.174,44.478-3.759Z"
      transform="translate(556.538 80.03)" fill="#fff" />

  </g>

</svg>
