<svg class="LA" xmlns="http://www.w3.org/2000/svg" width="142.706" height="99" viewBox="0 0 142.706 99">
  <g id="Group_3" data-name="Group 3" transform="translate(-90.061 -147.755)">
    <path id="Path_1" data-name="Path 1"
      d="M183.31,199.638l-1.475,3.663,3.09-.4Zm-25.027,0a2.183,2.183,0,0,0-1.43-.252l-2.617.259.267,3.46,1.99-.242a3.51,3.51,0,0,0,1.8-.6,1.537,1.537,0,0,0,.547-1.455A1.414,1.414,0,0,0,158.282,199.638Zm-26.455,4.338a2.06,2.06,0,0,0-.633-1.462,1.605,1.605,0,0,0-1.447-.27l-.944.206.352,3.724.853-.068A1.715,1.715,0,0,0,131.827,203.976Zm-16.626,3.84-1.063,5.074,3.054-.476Zm62.654-31.638-2.241,5.356,4.8-.015ZM115.2,207.816l-1.063,5.074,3.054-.476Zm16.626-3.84a2.06,2.06,0,0,0-.633-1.462,1.605,1.605,0,0,0-1.447-.27l-.944.206.352,3.724.853-.068A1.715,1.715,0,0,0,131.827,203.976Zm26.455-4.338a2.183,2.183,0,0,0-1.43-.252l-2.617.259.267,3.46,1.99-.242a3.51,3.51,0,0,0,1.8-.6,1.537,1.537,0,0,0,.547-1.455A1.414,1.414,0,0,0,158.282,199.638Zm19.573-23.459-2.241,5.356,4.8-.015Zm5.455,23.459-1.475,3.663,3.09-.4Zm0,0-1.475,3.663,3.09-.4Zm-25.027,0a2.183,2.183,0,0,0-1.43-.252l-2.617.259.267,3.46,1.99-.242a3.51,3.51,0,0,0,1.8-.6,1.537,1.537,0,0,0,.547-1.455A1.414,1.414,0,0,0,158.282,199.638Zm-26.455,4.338a2.06,2.06,0,0,0-.633-1.462,1.605,1.605,0,0,0-1.447-.27l-.944.206.352,3.724.853-.068A1.715,1.715,0,0,0,131.827,203.976Zm-16.626,3.84-1.063,5.074,3.054-.476Zm62.654-31.638-2.241,5.356,4.8-.015ZM115.2,207.816l-1.063,5.074,3.054-.476Zm16.626-3.84a2.06,2.06,0,0,0-.633-1.462,1.605,1.605,0,0,0-1.447-.27l-.944.206.352,3.724.853-.068A1.715,1.715,0,0,0,131.827,203.976Zm26.455-4.338a2.183,2.183,0,0,0-1.43-.252l-2.617.259.267,3.46,1.99-.242a3.51,3.51,0,0,0,1.8-.6,1.537,1.537,0,0,0,.547-1.455A1.414,1.414,0,0,0,158.282,199.638Zm19.573-23.459-2.241,5.356,4.8-.015Zm5.455,23.459-1.475,3.663,3.09-.4Zm0,0-1.475,3.663,3.09-.4Zm-25.027,0a2.183,2.183,0,0,0-1.43-.252l-2.617.259.267,3.46,1.99-.242a3.51,3.51,0,0,0,1.8-.6,1.537,1.537,0,0,0,.547-1.455A1.414,1.414,0,0,0,158.282,199.638Zm-26.455,4.338a2.06,2.06,0,0,0-.633-1.462,1.605,1.605,0,0,0-1.447-.27l-.944.206.352,3.724.853-.068A1.715,1.715,0,0,0,131.827,203.976Zm-16.626,3.84-1.063,5.074,3.054-.476Zm62.654-31.638-2.241,5.356,4.8-.015ZM115.2,207.816l-1.063,5.074,3.054-.476Zm16.626-3.84a2.06,2.06,0,0,0-.633-1.462,1.605,1.605,0,0,0-1.447-.27l-.944.206.352,3.724.853-.068A1.715,1.715,0,0,0,131.827,203.976Zm26.455-4.338a2.183,2.183,0,0,0-1.43-.252l-2.617.259.267,3.46,1.99-.242a3.51,3.51,0,0,0,1.8-.6,1.537,1.537,0,0,0,.547-1.455A1.414,1.414,0,0,0,158.282,199.638Zm19.573-23.459-2.241,5.356,4.8-.015Zm5.455,23.459-1.475,3.663,3.09-.4Zm0,0-1.475,3.663,3.09-.4Zm-25.027,0a2.183,2.183,0,0,0-1.43-.252l-2.617.259.267,3.46,1.99-.242a3.51,3.51,0,0,0,1.8-.6,1.537,1.537,0,0,0,.547-1.455A1.414,1.414,0,0,0,158.282,199.638Zm-26.455,4.338a2.06,2.06,0,0,0-.633-1.462,1.605,1.605,0,0,0-1.447-.27l-.944.206.352,3.724.853-.068A1.715,1.715,0,0,0,131.827,203.976Zm-16.626,3.84-1.063,5.074,3.054-.476Zm62.654-31.638-2.241,5.356,4.8-.015ZM115.2,207.816l-1.063,5.074,3.054-.476Zm16.626-3.84a2.06,2.06,0,0,0-.633-1.462,1.605,1.605,0,0,0-1.447-.27l-.944.206.352,3.724.853-.068A1.715,1.715,0,0,0,131.827,203.976Zm26.455-4.338a2.183,2.183,0,0,0-1.43-.252l-2.617.259.267,3.46,1.99-.242a3.51,3.51,0,0,0,1.8-.6,1.537,1.537,0,0,0,.547-1.455A1.414,1.414,0,0,0,158.282,199.638Zm19.573-23.459-2.241,5.356,4.8-.015Zm5.455,23.459-1.475,3.663,3.09-.4Zm0,0-1.475,3.663,3.09-.4Zm-25.027,0a2.183,2.183,0,0,0-1.43-.252l-2.617.259.267,3.46,1.99-.242a3.51,3.51,0,0,0,1.8-.6,1.537,1.537,0,0,0,.547-1.455A1.414,1.414,0,0,0,158.282,199.638Zm-26.455,4.338a2.06,2.06,0,0,0-.633-1.462,1.605,1.605,0,0,0-1.447-.27l-.944.206.352,3.724.853-.068A1.715,1.715,0,0,0,131.827,203.976Zm-16.626,3.84-1.063,5.074,3.054-.476Zm62.654-31.638-2.241,5.356,4.8-.015ZM115.2,207.816l-1.063,5.074,3.054-.476Zm16.626-3.84a2.06,2.06,0,0,0-.633-1.462,1.605,1.605,0,0,0-1.447-.27l-.944.206.352,3.724.853-.068A1.715,1.715,0,0,0,131.827,203.976Zm26.455-4.338a2.183,2.183,0,0,0-1.43-.252l-2.617.259.267,3.46,1.99-.242a3.51,3.51,0,0,0,1.8-.6,1.537,1.537,0,0,0,.547-1.455A1.414,1.414,0,0,0,158.282,199.638Zm19.573-23.459-2.241,5.356,4.8-.015Zm5.455,23.459-1.475,3.663,3.09-.4Zm0,0-1.475,3.663,3.09-.4Zm-25.027,0a2.183,2.183,0,0,0-1.43-.252l-2.617.259.267,3.46,1.99-.242a3.51,3.51,0,0,0,1.8-.6,1.537,1.537,0,0,0,.547-1.455A1.414,1.414,0,0,0,158.282,199.638Zm-26.455,4.338a2.06,2.06,0,0,0-.633-1.462,1.605,1.605,0,0,0-1.447-.27l-.944.206.352,3.724.853-.068A1.715,1.715,0,0,0,131.827,203.976Zm-16.626,3.84-1.063,5.074,3.054-.476Zm62.654-31.638-2.241,5.356,4.8-.015Zm12.908-16.6-100.7-11.827L101.883,232.1l92.123-19.584,24.132,3.336-20.44-5.088L195.429,163.3l29.37-2.792-2.927,56.256,5.284,14.328,5.611-77.077ZM175.2,166.346a.774.774,0,0,1,.384-.124l4.679.359a1.024,1.024,0,0,1,.413.171,2.365,2.365,0,0,1,.338.395l10.7,21.368a.976.976,0,0,1,.007.861.72.72,0,0,1-.708.424l-5.946.312a.834.834,0,0,1-.4-.131.68.68,0,0,1-.3-.345l-1.408-2.866-9.6.323-1.149,3.165a1.023,1.023,0,0,1-.291.391.729.729,0,0,1-.395.188l-5.261.3a.757.757,0,0,1-.766-.409,1.232,1.232,0,0,1-.037-1.027L174.9,166.67A.734.734,0,0,1,175.2,166.346Zm-26.925-1.767a.55.55,0,0,1,.532-.288l18.253,1.294a.8.8,0,0,1,.594.341,1.1,1.1,0,0,1,.277.69l.242,4.406a1.071,1.071,0,0,1-.185.7.646.646,0,0,1-.562.259l-5.392-.21,1.152,18.534a1.116,1.116,0,0,1-.181.715.629.629,0,0,1-.523.334l-5.562.341a.671.671,0,0,1-.544-.288,1.14,1.14,0,0,1-.29-.7l-1.342-19.224-5.4-.2a.707.707,0,0,1-.594-.331,1.5,1.5,0,0,1-.281-.8l-.375-4.843A1.1,1.1,0,0,1,148.277,164.579Zm-26.722-1.661c.117-.228.256-.341.451-.323l4.9.288c.19.007.359.132.528.388a2.025,2.025,0,0,1,.271.835l2.667,28.161a1.407,1.407,0,0,1-.114.821.54.54,0,0,1-.428.391l-4.7.345a.634.634,0,0,1-.512-.327,1.746,1.746,0,0,1-.26-.825l-2.9-28.918A1.55,1.55,0,0,1,121.555,162.918ZM105.51,194.912a1.591,1.591,0,0,1-.325-.881l-3.594-31.3a1.616,1.616,0,0,1,.127-.9.479.479,0,0,1,.512-.341l5.7.3a.853.853,0,0,1,.61.408,1.713,1.713,0,0,1,.338.9l2.382,21.945,9.676-.338a.767.767,0,0,1,.587.324,1.582,1.582,0,0,1,.322.861l.7,6.909a1.564,1.564,0,0,1-.135.871.6.6,0,0,1-.5.38l-15.793,1.213A.692.692,0,0,1,105.51,194.912Zm19.539,23.836a.553.553,0,0,1-.425.448l-3.821.711a.394.394,0,0,1-.27-.082.615.615,0,0,1-.212-.3l-1.12-2.518-6.134,1.07-.535,2.9a.831.831,0,0,1-.153.377.422.422,0,0,1-.249.2l-3.359.647a.472.472,0,0,1-.532-.309,1.344,1.344,0,0,1-.087-.892l4.514-21.418a.7.7,0,0,1,.162-.334c.1-.11.172-.16.238-.16l2.967-.288a.4.4,0,0,1,.261.128.65.65,0,0,1,.233.3l8.432,18.715A1.274,1.274,0,0,1,125.049,218.748Zm10.222-10.28a5.414,5.414,0,0,1-3.949,2.137l-1.7.224.619,6.522a1.068,1.068,0,0,1-.082.573.5.5,0,0,1-.332.3l-3.469.644a.389.389,0,0,1-.377-.164,1.045,1.045,0,0,1-.213-.543l-1.925-19.27a1.018,1.018,0,0,1,.092-.576.41.41,0,0,1,.327-.274l4.936-.455a11.252,11.252,0,0,1,2.843.107,4.859,4.859,0,0,1,2.107.935,4.724,4.724,0,0,1,1.4,1.842,8.887,8.887,0,0,1,.677,2.859A7.682,7.682,0,0,1,135.271,208.468Zm.585-15.59a2.269,2.269,0,0,1-.413-.1l0,.05c-.5-.1-.925-.189-1.289-.281s-.619-.153-.816-.2a.8.8,0,0,1-.434-.356,1.474,1.474,0,0,1-.267-.637l-1.081-7.3a1.3,1.3,0,0,1,.192-1.1.546.546,0,0,1,.791-.089,28.645,28.645,0,0,0,3.679,2.013,9.908,9.908,0,0,0,4.274.981,3.6,3.6,0,0,0,1.823-.469,1.209,1.209,0,0,0,.59-1.205,1.151,1.151,0,0,0-.466-.779,9.342,9.342,0,0,0-3.14-1.2c-3.048-.829-5.211-1.945-6.486-3.368a10.857,10.857,0,0,1-2.5-6.482c-.3-3.251.251-5.658,1.668-7.255,1.412-1.565,3.53-2.237,6.335-2.052a17.38,17.38,0,0,1,3.975.779c.676.21,1.282.412,1.791.587a13.41,13.41,0,0,1,1.283.509,1.024,1.024,0,0,1,.411.384,1.372,1.372,0,0,1,.237.59l1.019,6.309a1.209,1.209,0,0,1-.215,1.042.554.554,0,0,1-.818.046c-.558-.381-1.161-.729-1.769-1.063a20.8,20.8,0,0,0-1.917-.939,10.4,10.4,0,0,0-3.546-.878,5.18,5.18,0,0,0-1.78.181.809.809,0,0,0-.562.886,1.172,1.172,0,0,0,.734.96c.411.213.923.437,1.508.69a15.808,15.808,0,0,0,2.08.7q4.329,1.253,6.031,3.428a10.015,10.015,0,0,1,2.182,5.861,11.806,11.806,0,0,1-.306,4.093,7.96,7.96,0,0,1-1.548,3.062,7.292,7.292,0,0,1-2.667,2.006,10.492,10.492,0,0,1-3.691.9,18.045,18.045,0,0,1-2.226.025,19.675,19.675,0,0,1-2.222-.242A2.577,2.577,0,0,0,135.856,192.878ZM149.4,214.467a.505.505,0,0,1-.341.287l-9.964,1.786a.375.375,0,0,1-.368-.161.818.818,0,0,1-.194-.512l-1.62-18.189a.776.776,0,0,1,.11-.534.393.393,0,0,1,.326-.259l9.795-.832a.437.437,0,0,1,.361.181.773.773,0,0,1,.187.5l.29,3.493a1.036,1.036,0,0,1-.109.54.454.454,0,0,1-.345.253l-5.6.619.158,1.956,4.787-.565a.409.409,0,0,1,.354.177.917.917,0,0,1,.208.484l.254,3.456a.783.783,0,0,1-.11.548.462.462,0,0,1-.324.274l-4.742.7.174,2.056,5.983-.9a.36.36,0,0,1,.378.164.877.877,0,0,1,.178.487l.277,3.488A.87.87,0,0,1,149.4,214.467Zm15.971-2.86a.558.558,0,0,1-.437.384l-4.161.719a.323.323,0,0,1-.26-.071.618.618,0,0,1-.2-.235l-2.456-5.028a2.4,2.4,0,0,0-.149-.2.5.5,0,0,0-.176-.153c-.1-.089-.437-.093-1.033,0l-1.6.224.4,5.707a.8.8,0,0,1-.116.509.454.454,0,0,1-.343.277l-3.63.637a.383.383,0,0,1-.363-.146.8.8,0,0,1-.19-.48l-1.3-17.154a.745.745,0,0,1,.108-.516.423.423,0,0,1,.325-.242l8.455-.69a4.764,4.764,0,0,1,3.55,1.006,4.669,4.669,0,0,1,1.634,3.492,5.22,5.22,0,0,1-.906,3.8,5.739,5.739,0,0,1-.622.619,5.209,5.209,0,0,1-.8.562,4.616,4.616,0,0,1,.964.711,5.762,5.762,0,0,1,.675.807l2.566,4.765A.873.873,0,0,1,165.366,211.607Zm8.278-1.283a.454.454,0,0,1-.327.245l-3.613.615a.413.413,0,0,1-.348-.146.648.648,0,0,1-.174-.419l-.658-11.991-3.454.338a.359.359,0,0,1-.372-.167.759.759,0,0,1-.178-.462l-.169-2.984a.778.778,0,0,1,.109-.484.451.451,0,0,1,.348-.231l11.661-.865a.442.442,0,0,1,.373.153.6.6,0,0,1,.168.423l.128,2.806a.763.763,0,0,1-.128.462.5.5,0,0,1-.356.224l-3.457.323.569,11.7A.772.772,0,0,1,173.644,210.324Zm18.545-3.108a.525.525,0,0,1-.455.324l-3.844.619a.42.42,0,0,1-.263-.047.367.367,0,0,1-.185-.2l-.889-1.786-6.2.942-.755,2.12a.767.767,0,0,1-.192.252.415.415,0,0,1-.245.153l-3.414.555a.424.424,0,0,1-.5-.21.709.709,0,0,1,0-.64l6.209-15.564a.683.683,0,0,1,.2-.242.619.619,0,0,1,.235-.117l3-.2a.392.392,0,0,1,.263.071.487.487,0,0,1,.192.231l6.817,13.161A.682.682,0,0,1,192.189,207.215ZM181.834,203.3l3.09-.4-1.614-3.264Zm-3.979-27.122-2.241,5.356,4.8-.015Zm-21,23.207-2.617.259.267,3.46,1.99-.242a3.51,3.51,0,0,0,1.8-.6,1.537,1.537,0,0,0,.547-1.455,1.414,1.414,0,0,0-.56-1.166A2.183,2.183,0,0,0,156.853,199.386Zm-25.659,3.129a1.605,1.605,0,0,0-1.447-.27l-.944.206.352,3.724.853-.068a1.715,1.715,0,0,0,1.819-2.13A2.06,2.06,0,0,0,131.194,202.515Zm-17.057,10.376,3.054-.476-1.991-4.6Zm63.718-36.712-2.241,5.356,4.8-.015ZM115.2,207.816l-1.063,5.074,3.054-.476Zm16.626-3.84a2.06,2.06,0,0,0-.633-1.462,1.605,1.605,0,0,0-1.447-.27l-.944.206.352,3.724.853-.068A1.715,1.715,0,0,0,131.827,203.976Zm26.455-4.338a2.183,2.183,0,0,0-1.43-.252l-2.617.259.267,3.46,1.99-.242a3.51,3.51,0,0,0,1.8-.6,1.537,1.537,0,0,0,.547-1.455A1.414,1.414,0,0,0,158.282,199.638Zm25.027,0-1.475,3.663,3.09-.4Zm0,0-1.475,3.663,3.09-.4Zm-5.455-23.459-2.241,5.356,4.8-.015Zm-19.573,23.459a2.183,2.183,0,0,0-1.43-.252l-2.617.259.267,3.46,1.99-.242a3.51,3.51,0,0,0,1.8-.6,1.537,1.537,0,0,0,.547-1.455A1.414,1.414,0,0,0,158.282,199.638Zm-26.455,4.338a2.06,2.06,0,0,0-.633-1.462,1.605,1.605,0,0,0-1.447-.27l-.944.206.352,3.724.853-.068A1.715,1.715,0,0,0,131.827,203.976Zm-16.626,3.84-1.063,5.074,3.054-.476Zm62.654-31.638-2.241,5.356,4.8-.015ZM115.2,207.816l-1.063,5.074,3.054-.476Zm16.626-3.84a2.06,2.06,0,0,0-.633-1.462,1.605,1.605,0,0,0-1.447-.27l-.944.206.352,3.724.853-.068A1.715,1.715,0,0,0,131.827,203.976Zm26.455-4.338a2.183,2.183,0,0,0-1.43-.252l-2.617.259.267,3.46,1.99-.242a3.51,3.51,0,0,0,1.8-.6,1.537,1.537,0,0,0,.547-1.455A1.414,1.414,0,0,0,158.282,199.638Zm25.027,0-1.475,3.663,3.09-.4Zm0,0-1.475,3.663,3.09-.4Zm-5.455-23.459-2.241,5.356,4.8-.015Zm-19.573,23.459a2.183,2.183,0,0,0-1.43-.252l-2.617.259.267,3.46,1.99-.242a3.51,3.51,0,0,0,1.8-.6,1.537,1.537,0,0,0,.547-1.455A1.414,1.414,0,0,0,158.282,199.638Zm-26.455,4.338a2.06,2.06,0,0,0-.633-1.462,1.605,1.605,0,0,0-1.447-.27l-.944.206.352,3.724.853-.068A1.715,1.715,0,0,0,131.827,203.976Zm-16.626,3.84-1.063,5.074,3.054-.476Zm62.654-31.638-2.241,5.356,4.8-.015ZM115.2,207.816l-1.063,5.074,3.054-.476Zm16.626-3.84a2.06,2.06,0,0,0-.633-1.462,1.605,1.605,0,0,0-1.447-.27l-.944.206.352,3.724.853-.068A1.715,1.715,0,0,0,131.827,203.976Zm26.455-4.338a2.183,2.183,0,0,0-1.43-.252l-2.617.259.267,3.46,1.99-.242a3.51,3.51,0,0,0,1.8-.6,1.537,1.537,0,0,0,.547-1.455A1.414,1.414,0,0,0,158.282,199.638Zm25.027,0-1.475,3.663,3.09-.4Zm0,0-1.475,3.663,3.09-.4Zm-5.455-23.459-2.241,5.356,4.8-.015Zm-19.573,23.459a2.183,2.183,0,0,0-1.43-.252l-2.617.259.267,3.46,1.99-.242a3.51,3.51,0,0,0,1.8-.6,1.537,1.537,0,0,0,.547-1.455A1.414,1.414,0,0,0,158.282,199.638Zm-26.455,4.338a2.06,2.06,0,0,0-.633-1.462,1.605,1.605,0,0,0-1.447-.27l-.944.206.352,3.724.853-.068A1.715,1.715,0,0,0,131.827,203.976Zm-16.626,3.84-1.063,5.074,3.054-.476Zm62.654-31.638-2.241,5.356,4.8-.015ZM115.2,207.816l-1.063,5.074,3.054-.476Zm16.626-3.84a2.06,2.06,0,0,0-.633-1.462,1.605,1.605,0,0,0-1.447-.27l-.944.206.352,3.724.853-.068A1.715,1.715,0,0,0,131.827,203.976Zm26.455-4.338a2.183,2.183,0,0,0-1.43-.252l-2.617.259.267,3.46,1.99-.242a3.51,3.51,0,0,0,1.8-.6,1.537,1.537,0,0,0,.547-1.455A1.414,1.414,0,0,0,158.282,199.638Zm25.027,0-1.475,3.663,3.09-.4Zm0,0-1.475,3.663,3.09-.4Zm-5.455-23.459-2.241,5.356,4.8-.015Zm-19.573,23.459a2.183,2.183,0,0,0-1.43-.252l-2.617.259.267,3.46,1.99-.242a3.51,3.51,0,0,0,1.8-.6,1.537,1.537,0,0,0,.547-1.455A1.414,1.414,0,0,0,158.282,199.638Zm-26.455,4.338a2.06,2.06,0,0,0-.633-1.462,1.605,1.605,0,0,0-1.447-.27l-.944.206.352,3.724.853-.068A1.715,1.715,0,0,0,131.827,203.976Zm-16.626,3.84-1.063,5.074,3.054-.476Zm62.654-31.638-2.241,5.356,4.8-.015ZM115.2,207.816l-1.063,5.074,3.054-.476Zm16.626-3.84a2.06,2.06,0,0,0-.633-1.462,1.605,1.605,0,0,0-1.447-.27l-.944.206.352,3.724.853-.068A1.715,1.715,0,0,0,131.827,203.976Zm26.455-4.338a2.183,2.183,0,0,0-1.43-.252l-2.617.259.267,3.46,1.99-.242a3.51,3.51,0,0,0,1.8-.6,1.537,1.537,0,0,0,.547-1.455A1.414,1.414,0,0,0,158.282,199.638Zm25.027,0-1.475,3.663,3.09-.4Zm0,0-1.475,3.663,3.09-.4Zm-5.455-23.459-2.241,5.356,4.8-.015Zm-19.573,23.459a2.183,2.183,0,0,0-1.43-.252l-2.617.259.267,3.46,1.99-.242a3.51,3.51,0,0,0,1.8-.6,1.537,1.537,0,0,0,.547-1.455A1.414,1.414,0,0,0,158.282,199.638Zm-26.455,4.338a2.06,2.06,0,0,0-.633-1.462,1.605,1.605,0,0,0-1.447-.27l-.944.206.352,3.724.853-.068A1.715,1.715,0,0,0,131.827,203.976Zm-16.626,3.84-1.063,5.074,3.054-.476Zm16.626-3.84a2.06,2.06,0,0,0-.633-1.462,1.605,1.605,0,0,0-1.447-.27l-.944.206.352,3.724.853-.068A1.715,1.715,0,0,0,131.827,203.976Zm51.483-4.338-1.475,3.663,3.09-.4Zm-25.027,0a2.183,2.183,0,0,0-1.43-.252l-2.617.259.267,3.46,1.99-.242a3.51,3.51,0,0,0,1.8-.6,1.537,1.537,0,0,0,.547-1.455A1.414,1.414,0,0,0,158.282,199.638ZM115.2,207.816l-1.063,5.074,3.054-.476Zm62.654-31.638-2.241,5.356,4.8-.015Z"
      fill="#fff" />
    <g id="Group_2" data-name="Group 2" transform="translate(101.962 240.449)">
      <path id="Path_2" data-name="Path 2" d="M122.519,406.925V400.83h3.052a2.026,2.026,0,1,1,0,4.048h-1.481v2.047Zm3.573-4.066a.678.678,0,0,0-.759-.658h-1.243v1.307h1.243A.676.676,0,0,0,126.092,402.858Z"
        transform="translate(-122.519 -400.729)" fill="#fff" />
      <path id="Path_3" data-name="Path 3" d="M138.253,406.925V400.83h4.469v1.37h-2.9v.95h2.833v1.371h-2.833v1.032h2.9v1.371Z" transform="translate(-132.484 -400.729)" fill="#fff" />
      <path id="Path_4" data-name="Path 4"
        d="M156.552,406.925l-1.023-2.047h-.8v2.047h-1.572V400.83H156.2a1.963,1.963,0,0,1,2.12,2.028,1.836,1.836,0,0,1-1.215,1.828l1.243,2.239Zm.173-4.075a.671.671,0,0,0-.758-.649h-1.243v1.307h1.243A.672.672,0,0,0,156.725,402.85Z"
        transform="translate(-141.92 -400.729)" fill="#fff" />
      <path id="Path_5" data-name="Path 5" d="M176.008,406.925V400.83h1.572v6.095Z" transform="translate(-156.395 -400.729)" fill="#fff" />
      <path id="Path_6" data-name="Path 6" d="M183.231,406.925V400.83H184.8v4.724h2.449v1.371Z" transform="translate(-160.97 -400.729)" fill="#fff" />
      <path id="Path_7" data-name="Path 7" d="M202.77,406.925V400.83h2.559a3.057,3.057,0,1,1,.01,6.095Zm4.249-3.052a1.561,1.561,0,0,0-1.681-1.673h-1v3.354h.987A1.618,1.618,0,0,0,207.019,403.873Z"
        transform="translate(-173.344 -400.729)" fill="#fff" />
      <path id="Path_8" data-name="Path 8" d="M220.871,406.925V400.83h1.572v6.095Z" transform="translate(-184.808 -400.729)" fill="#fff" />
      <path id="Path_9" data-name="Path 9"
        d="M231.532,406.925l-1.024-2.047h-.8v2.047h-1.572V400.83h3.052a1.962,1.962,0,0,1,2.12,2.028,1.835,1.835,0,0,1-1.215,1.828l1.243,2.239Zm.173-4.075a.671.671,0,0,0-.759-.649H229.7v1.307h1.243A.672.672,0,0,0,231.705,402.85Z"
        transform="translate(-189.407 -400.729)" fill="#fff" />
      <path id="Path_10" data-name="Path 10" d="M244.559,406.925V400.83h1.572v6.095Z" transform="translate(-199.811 -400.729)" fill="#fff" />
      <path id="Path_11" data-name="Path 11" d="M252.066,406.925V402.2h-1.709v-1.37h4.98v1.37h-1.7v4.725Z" transform="translate(-203.483 -400.729)" fill="#fff" />
      <path id="Path_12" data-name="Path 12" d="M266.738,406.925V402.2h-1.709v-1.37h4.98v1.37h-1.7v4.725Z" transform="translate(-212.775 -400.729)" fill="#fff" />
      <path id="Path_13" data-name="Path 13" d="M279.183,403.708a3.26,3.26,0,1,1,3.263,3.153A3.1,3.1,0,0,1,279.183,403.708Zm4.917,0a1.662,1.662,0,1,0-1.654,1.763A1.643,1.643,0,0,0,284.1,403.708Z"
        transform="translate(-221.739 -400.555)" fill="#fff" />
      <path id="Path_14" data-name="Path 14" d="M308.521,406.925l-.3-.877h-2.4l-.3.877h-1.782l2.294-6.095h1.983l2.294,6.095Zm-1.5-4.542-.777,2.294h1.544Z" transform="translate(-237.286 -400.729)" fill="#fff" />
      <path id="Path_15" data-name="Path 15" d="M322.779,406.925V400.83h1.572v4.724H326.8v1.371Z" transform="translate(-249.35 -400.729)" fill="#fff" />
      <path id="Path_16" data-name="Path 16" d="M335.318,406.925V400.83h1.572v4.724h2.449v1.371Z" transform="translate(-257.291 -400.729)" fill="#fff" />
      <path id="Path_17" data-name="Path 17" d="M346.98,403.708a3.26,3.26,0,1,1,3.262,3.153A3.1,3.1,0,0,1,346.98,403.708Zm4.916,0a1.662,1.662,0,1,0-1.654,1.763A1.643,1.643,0,0,0,351.9,403.708Z" transform="translate(-264.677 -400.555)"
        fill="#fff" />
      <path id="Path_18" data-name="Path 18"
        d="M372.1,405.907l.832-1.224a2.758,2.758,0,0,0,1.955.8c.53,0,.859-.183.859-.484,0-.8-3.445-.137-3.445-2.486,0-1.023.859-1.937,2.422-1.937a3.718,3.718,0,0,1,2.476.85l-.859,1.178a2.828,2.828,0,0,0-1.782-.639c-.457,0-.657.156-.657.42,0,.75,3.445.183,3.445,2.449,0,1.225-.905,2.038-2.541,2.038A3.767,3.767,0,0,1,372.1,405.907Z"
        transform="translate(-280.588 -400.571)" fill="#fff" />
      <path id="Path_19" data-name="Path 19" d="M388.978,406.925V402.2H387.27v-1.37h4.98v1.37h-1.7v4.725Z" transform="translate(-290.194 -400.729)" fill="#fff" />
      <path id="Path_20" data-name="Path 20" d="M402.4,404.457V400.83H404V404.4a1.285,1.285,0,0,0,2.568,0V400.83h1.59v3.619c0,1.517-.914,2.586-2.87,2.586S402.4,405.956,402.4,404.457Z" transform="translate(-299.776 -400.729)"
        fill="#fff" />
      <path id="Path_21" data-name="Path 21" d="M421.052,406.925V400.83h2.559a3.057,3.057,0,1,1,.009,6.095Zm4.249-3.052a1.561,1.561,0,0,0-1.681-1.673h-1v3.354h.987A1.618,1.618,0,0,0,425.3,403.873Z"
        transform="translate(-311.589 -400.729)" fill="#fff" />
      <path id="Path_22" data-name="Path 22" d="M439.154,406.925V400.83h1.572v6.095Z" transform="translate(-323.053 -400.729)" fill="#fff" />
      <path id="Path_23" data-name="Path 23" d="M445.53,403.708a3.259,3.259,0,1,1,3.262,3.153A3.1,3.1,0,0,1,445.53,403.708Zm4.916,0a1.662,1.662,0,1,0-1.654,1.763A1.643,1.643,0,0,0,450.446,403.708Z"
        transform="translate(-327.091 -400.555)" fill="#fff" />
    </g>
  </g>
</svg>
